# xmcd CD database file
#
# Track frame offsets:
#	200
#	16517
#	40050
#	56142
#	79915
#	99760
#	117890
#	133022
#	153347
#	176685
#	202442
#
# Disc length: 2987 seconds
#
# Revision: 0
# Processed by: cddbd v1.5.2PL0 Copyright (c) Steve Scherf et al.
# Submitted via: CDex 1.51
#
DISCID=8b0ba90b
DTITLE=Various Artist - Swing Collection
DYEAR=1993
DGENRE=Jazz
TTITLE0=When You´re Smiling - Larry Shay, Joe Goodwin, Mark Fisher
TTITLE1=A Smooth One - Duke Ellington
TTITLE2=Honeysuckle Rose - Thomas Fats Waller
TTITLE3=All Of Me - Gerald Marks
TTITLE4=It Don´t Mean A Thing - Duke Ellington
TTITLE5=Perdido - Juan Tizol
TTITLE6=Miss Bessie´s Cookin´ - Ernie Wilkins
TTITLE7=Bye Bye Blues - Grey Bennett, Lown Hamm
TTITLE8=Hush - Donald Byrd
TTITLE9=Salsa Amigo - Pete Coulman
TTITLE10=Mamacita - Joe Henderson
EXTD=YEAR: 1993
EXTT0=
EXTT1=
EXTT2=
EXTT3=
EXTT4=
EXTT5=
EXTT6=
EXTT7=
EXTT8=
EXTT9=
EXTT10=
PLAYORDER=
